<?xml version="1.0" standalone="no"?>
<!DOCTYPE svg PUBLIC "-//W3C//DTD SVG 20010904//EN"
 "http://www.w3.org/TR/2001/REC-SVG-20010904/DTD/svg10.dtd">
<svg version="1.0" xmlns="http://www.w3.org/2000/svg"
 width="600.000000pt" height="600.000000pt" viewBox="0 0 600.000000 600.000000"
 preserveAspectRatio="xMidYMid meet">

<g transform="translate(0.000000,600.000000) scale(0.100000,-0.100000)"
fill="#000000" stroke="none">
<path d="M3685 5183 c-40 -6 -65 -30 -65 -64 0 -21 27 -56 128 -162 147 -152
179 -196 232 -310 64 -138 71 -182 80 -482 8 -269 15 -344 45 -483 31 -152 95
-304 176 -423 106 -157 324 -273 450 -239 90 25 124 72 159 220 44 188 96 291
250 500 257 348 305 450 298 638 -3 86 -7 105 -36 164 -75 152 -273 301 -579
434 -329 144 -673 217 -998 212 -60 0 -123 -3 -140 -5z"/>
<path d="M1905 5170 c-314 -38 -581 -118 -860 -257 -264 -132 -419 -271 -472
-425 -22 -63 -18 -200 8 -283 37 -121 78 -191 268 -455 161 -226 193 -291 252
-519 43 -169 87 -214 204 -214 75 -1 146 23 223 73 118 76 180 148 256 298
104 202 156 483 156 836 0 324 79 494 359 771 98 97 110 124 70 161 -19 17
-40 19 -208 21 -102 1 -217 -3 -256 -7z"/>
<path d="M2285 4405 c-64 -39 -90 -86 -90 -165 0 -57 4 -73 28 -107 37 -54 92
-83 155 -83 88 0 147 37 183 115 34 73 15 159 -47 217 -60 55 -160 66 -229 23z
m67 -71 c9 -18 9 -30 1 -42 -14 -24 -63 -22 -79 3 -12 18 -11 24 2 43 21 31
61 29 76 -4z"/>
<path d="M3535 4416 c-62 -28 -115 -110 -115 -178 1 -68 60 -153 123 -177 48
-18 125 -13 168 11 171 96 104 359 -90 358 -31 -1 -69 -7 -86 -14z m43 -68 c7
-7 12 -21 12 -33 0 -12 -5 -26 -12 -33 -7 -7 -21 -12 -33 -12 -12 0 -26 5 -33
12 -7 7 -12 21 -12 33 0 12 5 26 12 33 7 7 21 12 33 12 12 0 26 -5 33 -12z"/>
<path d="M2854 3666 c-52 -23 -74 -61 -74 -125 0 -72 29 -121 125 -209 66 -61
68 -63 54 -88 -7 -14 -37 -48 -66 -74 -64 -59 -132 -84 -225 -83 -127 0 -250
86 -298 207 l-21 51 7 -50 c9 -72 41 -133 100 -190 50 -48 54 -58 103 -202
102 -305 202 -455 333 -499 69 -23 197 -16 254 14 113 58 219 232 310 507 43
128 50 143 90 178 50 44 90 122 99 192 l6 50 -25 -59 c-31 -73 -102 -147 -170
-178 -39 -17 -70 -23 -131 -23 -71 0 -88 4 -147 33 -63 31 -109 73 -138 126
-11 22 -6 29 78 112 75 75 91 96 101 137 21 87 -18 166 -90 181 -58 11 -243 6
-275 -8z m44 -94 c-2 -21 -9 -28 -30 -30 -23 -3 -29 2 -34 24 -5 20 -2 31 11
40 27 20 57 0 53 -34z"/>
<path d="M2645 3379 c-10 -30 18 -58 43 -43 9 6 17 22 17 35 0 34 -50 41 -60
8z"/>
<path d="M3294 3386 c-10 -26 1 -51 22 -54 30 -4 48 21 34 47 -12 24 -48 28
-56 7z"/>
<path d="M2517 3314 c-15 -16 -7 -53 14 -59 30 -10 58 19 43 43 -12 18 -45 28
-57 16z"/>
<path d="M3430 3305 c-18 -21 -8 -50 19 -53 37 -6 52 26 25 52 -19 20 -28 20
-44 1z"/>
<path d="M2643 3234 c-8 -22 10 -49 32 -49 10 0 22 7 28 16 15 24 1 49 -28 49
-15 0 -28 -7 -32 -16z"/>
<path d="M3291 3232 c-12 -23 4 -52 29 -52 25 0 41 30 29 53 -13 22 -46 22
-58 -1z"/>
<path d="M1848 1977 c-144 -117 3 -420 167 -345 83 38 96 198 24 297 -52 72
-137 93 -191 48z"/>
<path d="M4013 1980 c-117 -71 -135 -299 -28 -348 133 -61 272 130 209 288
-30 76 -112 103 -181 60z"/>
<path d="M2244 1852 c-84 -53 -96 -207 -21 -288 102 -112 251 21 207 184 -26
97 -117 147 -186 104z"/>
<path d="M3654 1860 c-55 -22 -101 -119 -91 -191 18 -136 134 -193 214 -105
114 124 18 353 -123 296z"/>
<path d="M1520 1797 c-112 -38 -102 -222 18 -314 71 -54 141 -56 192 -5 112
113 -57 370 -210 319z"/>
<path d="M4396 1797 c-60 -15 -131 -91 -151 -160 -46 -159 81 -253 213 -157
108 78 135 250 49 304 -33 20 -67 25 -111 13z"/>
<path d="M1892 1519 c-51 -26 -95 -77 -110 -127 -6 -20 -16 -76 -21 -124 -5
-47 -20 -119 -33 -160 -26 -84 -28 -170 -5 -213 24 -47 78 -92 124 -104 68
-18 129 4 203 74 92 87 133 111 231 135 112 27 158 49 192 90 55 65 55 155 0
228 -33 44 -71 66 -168 98 -44 15 -119 47 -168 72 -108 57 -178 65 -245 31z"/>
<path d="M3940 1526 c-19 -8 -64 -29 -100 -49 -36 -19 -101 -47 -145 -61 -97
-31 -135 -54 -168 -98 -55 -72 -55 -163 -1 -228 35 -41 71 -58 184 -87 105
-26 139 -45 226 -126 90 -83 146 -105 217 -86 46 12 100 57 124 104 23 43 20
125 -10 235 -14 52 -28 124 -31 159 -8 86 -23 133 -57 175 -56 67 -155 93
-239 62z"/>
<path d="M1378 1387 c-76 -62 -48 -181 57 -243 118 -69 246 0 215 116 -31 117
-194 192 -272 127z"/>
<path d="M4459 1390 c-84 -44 -132 -138 -105 -204 20 -47 55 -68 116 -68 90 0
180 74 195 162 7 43 -19 99 -55 117 -36 18 -110 15 -151 -7z"/>
</g>
</svg>
